<svg width="22" height="6" viewBox="0 0 22 6" fill="none" xmlns="http://www.w3.org/2000/svg">
<path fill-rule="evenodd" clip-rule="evenodd" d="M8 3C8 1.34315 9.34315 0 11 0C12.6569 0 14 1.34315 14 3C14 4.65685 12.6569 6 11 6C9.34315 6 8 4.65685 8 3ZM11 2C10.4477 2 10 2.44772 10 3C10 3.55228 10.4477 4 11 4C11.5523 4 12 3.55228 12 3C12 2.44772 11.5523 2 11 2Z" fill="#202040"/>
<path fill-rule="evenodd" clip-rule="evenodd" d="M16 3C16 1.34315 17.3431 0 19 0C20.6569 0 22 1.34315 22 3C22 4.65685 20.6569 6 19 6C17.3431 6 16 4.65685 16 3ZM19 2C18.4477 2 18 2.44772 18 3C18 3.55228 18.4477 4 19 4C19.5523 4 20 3.55228 20 3C20 2.44772 19.5523 2 19 2Z" fill="#202040"/>
<path fill-rule="evenodd" clip-rule="evenodd" d="M0 3C0 1.34315 1.34315 0 3 0C4.65685 0 6 1.34315 6 3C6 4.65685 4.65685 6 3 6C1.34315 6 0 4.65685 0 3ZM3 2C2.44772 2 2 2.44772 2 3C2 3.55228 2.44772 4 3 4C3.55228 4 4 3.55228 4 3C4 2.44772 3.55228 2 3 2Z" fill="#202040"/>
</svg>
