<svg width="13" height="22" viewBox="0 0 13 22" fill="none" xmlns="http://www.w3.org/2000/svg">
<path fill-rule="evenodd" clip-rule="evenodd" d="M3 6C3 2.68629 5.68629 0 9 0H12C12.5523 0 13 0.447715 13 1V5C13 5.55228 12.5523 6 12 6H9V8H12C12.3079 8 12.5987 8.14187 12.7882 8.38459C12.9777 8.6273 13.0448 8.94379 12.9701 9.24254L11.9701 13.2425C11.8589 13.6877 11.4589 14 11 14H9V21C9 21.5523 8.55228 22 8 22H4C3.44772 22 3 21.5523 3 21V14H1C0.447715 14 0 13.5523 0 13V9C0 8.44772 0.447715 8 1 8H3V6ZM9 2C6.79086 2 5 3.79086 5 6V9C5 9.55229 4.55228 10 4 10H2V12H4C4.55228 12 5 12.4477 5 13V20H7V13C7 12.4477 7.44772 12 8 12H10.2192L10.7192 10H8C7.44772 10 7 9.55229 7 9V6C7 4.89543 7.89543 4 9 4H11V2H9Z" fill="#202040"/>
</svg>
