<svg width="22" height="24" viewBox="0 0 22 24" fill="none" xmlns="http://www.w3.org/2000/svg">
<path d="M8.28735 20.9578C8.81634 20.7991 9.11652 20.2416 8.95783 19.7126C8.79913 19.1836 8.24164 18.8834 7.71265 19.0421L8.28735 20.9578ZM1.24254 16.0298C0.706741 15.8958 0.163806 16.2216 0.0298575 16.7574C-0.104091 17.2932 0.221669 17.8361 0.757464 17.9701L1.24254 16.0298ZM14 22.9999C14 23.5522 14.4477 23.9999 15 23.9999C15.5523 23.9999 16 23.5522 16 22.9999H14ZM15 19.1299L14.0031 19.0515C14.001 19.0776 14 19.1038 14 19.1299H15ZM14.06 16.5199L13.9492 15.5261C13.57 15.5684 13.2479 15.8227 13.1189 16.1818C12.9899 16.5409 13.0764 16.942 13.342 17.216L14.06 16.5199ZM20.5 9.51994H21.5V9.51975L20.5 9.51994ZM19 5.76994L18.0631 5.4203C17.9293 5.77883 18.0119 6.18229 18.2757 6.45946L19 5.76994ZM18.91 1.99994L19.8291 1.60599C19.712 1.33274 19.4794 1.12576 19.1944 1.04122L18.91 1.99994ZM15 3.47994L14.7384 4.44512C15.0178 4.52084 15.3163 4.47177 15.5568 4.31058L15 3.47994ZM8 3.47994L7.44319 4.31058C7.68366 4.47177 7.98217 4.52084 8.26158 4.44512L8 3.47994ZM4.09 1.99994L3.80563 1.04122C3.52061 1.12576 3.28799 1.33274 3.17087 1.60599L4.09 1.99994ZM4 5.76994L4.72425 6.45947C4.98813 6.18231 5.07069 5.77884 4.93688 5.4203L4 5.76994ZM2.5 9.54994H3.50001L3.49999 9.54462L2.5 9.54994ZM8.94 16.5499L9.6586 17.2454C9.92225 16.9729 10.0092 16.5748 9.88305 16.2173C9.75694 15.8598 9.43949 15.6043 9.06326 15.5576L8.94 16.5499ZM8 19.1299H9C9 19.1065 8.99918 19.0831 8.99754 19.0598L8 19.1299ZM7 22.9999C7 23.5522 7.44771 23.9999 8 23.9999C8.55228 23.9999 9 23.5522 9 22.9999H7ZM7.71265 19.0421C6.57636 19.383 5.82286 19.3816 5.30601 19.2606C4.80203 19.1427 4.42857 18.8893 4.08211 18.5428C3.90325 18.364 3.73545 18.1642 3.5569 17.9405C3.39069 17.7323 3.18875 17.4688 2.99562 17.2421C2.60492 16.7834 2.05841 16.2338 1.24254 16.0298L0.757464 17.9701C0.941594 18.0161 1.14508 18.1539 1.47313 18.539C1.63937 18.7342 1.789 18.9316 1.99388 19.1883C2.18643 19.4295 2.40925 19.6984 2.66789 19.957C3.19643 20.4856 3.88547 20.9822 4.85024 21.208C5.80214 21.4308 6.92364 21.3669 8.28735 20.9578L7.71265 19.0421ZM16 22.9999V19.1299H14V22.9999H16ZM15.9969 19.2084C16.0953 17.9575 15.6513 16.7247 14.778 15.8239L13.342 17.216C13.8157 17.7046 14.0564 18.3731 14.0031 19.0515L15.9969 19.2084ZM14.1708 17.5138C15.797 17.3325 17.652 16.92 19.1011 15.7016C20.5987 14.4423 21.5 12.4662 21.5 9.51994H19.5C19.5 12.0337 18.7513 13.3826 17.8139 14.1708C16.828 14.9999 15.463 15.3574 13.9492 15.5261L14.1708 17.5138ZM21.5 9.51975C21.4997 7.86693 20.8639 6.2775 19.7243 5.08042L18.2757 6.45946C19.0615 7.28478 19.4998 8.3806 19.5 9.52012L21.5 9.51975ZM19.9369 6.11958C20.4827 4.65716 20.4441 3.0407 19.8291 1.60599L17.9909 2.39389C18.4032 3.35588 18.4291 4.43973 18.0631 5.4203L19.9369 6.11958ZM18.91 1.99994C19.1944 1.04122 19.1934 1.04094 19.1924 1.04065C19.1921 1.04055 19.1911 1.04026 19.1905 1.04007C19.1891 1.03968 19.1878 1.0393 19.1864 1.0389C19.1837 1.03812 19.1809 1.03732 19.178 1.03652C19.1723 1.03491 19.1662 1.03327 19.1598 1.0316C19.1471 1.02826 19.1331 1.02481 19.1178 1.02134C19.0873 1.01441 19.0519 1.0074 19.0115 1.00095C18.9305 0.988049 18.8304 0.977522 18.7105 0.974222C18.4702 0.967608 18.1553 0.990147 17.762 1.07746C16.9773 1.25168 15.8856 1.68238 14.4432 2.64929L15.5568 4.31058C16.8444 3.4475 17.7077 3.1382 18.1955 3.02992C18.4385 2.97598 18.5892 2.97164 18.6555 2.97347C18.6889 2.97438 18.7022 2.9769 18.6965 2.97599C18.6937 2.97555 18.6863 2.97427 18.6744 2.97156C18.6684 2.97021 18.6614 2.96851 18.6532 2.96638C18.6492 2.96532 18.6448 2.96415 18.6402 2.96286C18.6379 2.96222 18.6356 2.96155 18.6331 2.96085C18.6319 2.9605 18.6307 2.96014 18.6294 2.95977C18.6288 2.95959 18.6279 2.95931 18.6275 2.95922C18.6266 2.95894 18.6256 2.95865 18.91 1.99994ZM15.2616 2.51476C12.7983 1.84715 10.2017 1.84715 7.73842 2.51476L8.26158 4.44512C10.3823 3.87037 12.6177 3.87037 14.7384 4.44512L15.2616 2.51476ZM8.5568 2.64929C7.11435 1.68237 6.02274 1.25168 5.23798 1.07746C4.8447 0.990147 4.52982 0.967608 4.28952 0.974222C4.16963 0.977522 4.06945 0.988049 3.98854 1.00095C3.94814 1.0074 3.91271 1.01441 3.8822 1.02134C3.86695 1.02481 3.85294 1.02826 3.84018 1.0316C3.8338 1.03327 3.82773 1.03491 3.82197 1.03652C3.81909 1.03732 3.81629 1.03812 3.81357 1.0389C3.81221 1.0393 3.81087 1.03968 3.80954 1.04007C3.80888 1.04026 3.8079 1.04055 3.80757 1.04065C3.8066 1.04094 3.80563 1.04122 4.09 1.99994C4.37436 2.95865 4.37341 2.95894 4.37245 2.95922C4.37214 2.95931 4.37119 2.95959 4.37056 2.95977C4.36931 2.96014 4.36808 2.9605 4.36686 2.96085C4.36443 2.96155 4.36206 2.96222 4.35976 2.96286C4.35516 2.96415 4.35082 2.96532 4.34676 2.96638C4.33862 2.96851 4.33158 2.97021 4.32564 2.97156C4.31374 2.97427 4.30633 2.97555 4.30353 2.97599C4.29781 2.9769 4.31115 2.97438 4.34454 2.97347C4.4108 2.97164 4.56155 2.97598 4.80452 3.02992C5.29226 3.1382 6.15565 3.4475 7.44319 4.31058L8.5568 2.64929ZM3.17087 1.60599C2.55594 3.0407 2.51735 4.65716 3.06312 6.11958L4.93688 5.4203C4.57094 4.43973 4.59681 3.35588 5.00913 2.39389L3.17087 1.60599ZM3.27575 5.0804C2.12759 6.28636 1.49116 7.89016 1.50001 9.55525L3.49999 9.54462C3.49388 8.39664 3.93266 7.29091 4.72425 6.45947L3.27575 5.0804ZM1.5 9.54994C1.5 12.4794 2.40326 14.4439 3.89892 15.7016C5.34442 16.917 7.19555 17.341 8.81674 17.5423L9.06326 15.5576C7.54445 15.3689 6.17558 15.0028 5.18608 14.1708C4.24674 13.381 3.5 12.0405 3.5 9.54994H1.5ZM8.2214 15.8545C7.35857 16.7461 6.91542 17.9624 7.00246 19.2001L8.99754 19.0598C8.95033 18.3885 9.19067 17.7289 9.6586 17.2454L8.2214 15.8545ZM7 19.1299V22.9999H9V19.1299H7Z" fill="#202040"/>
</svg>
