<svg width="26" height="26" viewBox="0 0 26 26" fill="none" xmlns="http://www.w3.org/2000/svg">
<path d="M8.25421 11.0057C8.25421 11.7654 7.63829 12.3814 6.87851 12.3814C6.11873 12.3814 5.50281 11.7654 5.50281 11.0057C5.50281 10.2459 6.11873 9.62995 6.87851 9.62995C7.63829 9.62995 8.25421 10.2459 8.25421 11.0057Z" fill="#C4C4C4"/>
<path d="M11.0056 12.3814C11.7654 12.3814 12.3813 11.7654 12.3813 11.0057C12.3813 10.2459 11.7654 9.62995 11.0056 9.62995C10.2458 9.62995 9.62991 10.2459 9.62991 11.0057C9.62991 11.7654 10.2458 12.3814 11.0056 12.3814Z" fill="#C4C4C4"/>
<path d="M15.1327 12.3814C15.8925 12.3814 16.5084 11.7654 16.5084 11.0057C16.5084 10.2459 15.8925 9.62995 15.1327 9.62995C14.3729 9.62995 13.757 10.2459 13.757 11.0057C13.757 11.7654 14.3729 12.3814 15.1327 12.3814Z" fill="#C4C4C4"/>
<path fill-rule="evenodd" clip-rule="evenodd" d="M18.7877 3.22348C22.7568 7.19262 23.0605 13.4392 19.6988 17.7568C19.7198 17.7754 19.7404 17.7948 19.7605 17.8149L25.5971 23.6515C26.1343 24.1888 26.1343 25.0598 25.5971 25.5971C25.0598 26.1343 24.1888 26.1343 23.6515 25.5971L17.8149 19.7604C17.7948 19.7403 17.7755 19.7197 17.7569 19.6987C13.4393 23.0606 7.19263 22.757 3.22346 18.7878C-1.07449 14.4899 -1.07449 7.52146 3.22346 3.22348C7.52141 -1.07449 14.4898 -1.07449 18.7877 3.22348ZM5.169 16.8423C8.39246 20.0658 13.6187 20.0658 16.8422 16.8423C20.0657 13.6188 20.0657 8.39251 16.8422 5.16902C13.6187 1.94554 8.39246 1.94554 5.169 5.16902C1.94553 8.39251 1.94553 13.6188 5.169 16.8423Z" fill="#C4C4C4"/>
</svg>
