<svg width="24" height="21" viewBox="0 0 24 21" fill="none" xmlns="http://www.w3.org/2000/svg">
<path fill-rule="evenodd" clip-rule="evenodd" d="M20.1328 2.38509C18.6196 1.03085 16.4579 0.612693 14.5255 1.35025C12.3887 2.16583 10.9843 4.22202 10.9997 6.50656C8.13296 6.29145 5.48993 4.80559 3.81834 2.42534C3.6113 2.13053 3.26168 1.96986 2.90312 2.00476C2.54456 2.03965 2.23248 2.26471 2.08617 2.59392L2.99998 3.00005C2.08617 2.59392 2.08596 2.5944 2.08573 2.59491L2.08519 2.59612L2.08385 2.59916L2.08011 2.60772L2.06854 2.63465C2.05908 2.6569 2.04619 2.68771 2.03042 2.72664C1.99889 2.80447 1.95575 2.91494 1.90526 3.05459C1.8044 3.33356 1.67356 3.73083 1.54746 4.21842C1.29646 5.18895 1.05769 6.54234 1.12601 8.04546C1.19454 9.55296 1.57341 11.2317 2.57704 12.8164C3.3294 14.0043 4.41157 15.1055 5.91472 16.033C4.39635 16.7325 2.72654 17.0679 1.03973 17.0008C0.577005 16.9824 0.162178 17.2841 0.0371299 17.73C-0.0879187 18.1759 0.109527 18.6493 0.514338 18.8742C5.29085 21.5278 10.6509 21.5526 14.8448 19.3203C19.0631 17.0751 22 12.6 22 6.50005L22 6.49675C21.9994 6.33449 21.9917 6.17243 21.9769 6.01103C22.9424 4.93962 23.629 3.6432 23.9716 2.23667C24.0702 1.83167 23.9073 1.40797 23.5627 1.17341C23.2181 0.938847 22.7642 0.942625 22.4236 1.18289C21.7152 1.68259 20.9449 2.08658 20.1328 2.38509ZM3.40458 5.04386C3.22091 5.8452 3.07426 6.86138 3.12395 7.95465C3.18043 9.19715 3.48906 10.5184 4.26667 11.7463C5.04027 12.9677 6.31602 14.1573 8.40612 15.0862C8.73792 15.2337 8.96372 15.5494 8.99602 15.9111C9.02831 16.2728 8.86204 16.6235 8.56161 16.8274C7.45067 17.5815 6.23418 18.1489 4.96008 18.5157C8.13025 19.3234 11.307 18.9377 13.9051 17.5548C17.4365 15.6752 19.9995 11.9009 20 6.50172C19.9992 6.28562 19.9783 6.07007 19.9378 5.85781C19.8751 5.52994 19.9801 5.19243 20.2178 4.95805C20.4406 4.73836 20.6469 4.50422 20.8357 4.25756C20.6092 4.34111 20.3799 4.41784 20.1483 4.48759C19.7717 4.601 19.3635 4.48309 19.1054 4.18629C18.1472 3.08445 16.6029 2.69806 15.2387 3.21877C13.8744 3.73948 12.9803 5.05653 12.9999 6.51665L13.0001 6.53006L13 7.53006C13 8.07224 12.5679 8.51567 12.0259 8.52972C8.76543 8.61426 5.65043 7.33089 3.40458 5.04386Z" fill="#202040"/>
</svg>
