<svg width="183" height="46" viewBox="0 0 183 46" fill="none" xmlns="http://www.w3.org/2000/svg">
<path d="M5.09375 34V18.6094H0.515625V11.125H17.8906V18.6094H13.3125V34H5.09375Z" fill="#202040"/>
<path d="M23.9494 34V17.8437H31.5588V20.1094C32.2254 19.2031 32.9806 18.5 33.8244 18C34.6577 17.5521 35.5796 17.3281 36.59 17.3281H36.9338C37.0379 17.3281 37.1108 17.3385 37.1525 17.3594V25.2031C36.7254 24.9739 36.3244 24.7917 35.9494 24.6562C35.5535 24.5521 35.2202 24.5 34.9494 24.5C33.9494 24.5 33.1838 24.776 32.6525 25.3281C32.09 25.8906 31.8088 26.6458 31.8088 27.5937V34H23.9494Z" fill="#202040"/>
<path d="M43.5706 34.0625V17.9062H51.4144V34.0625H43.5706ZM49.6488 13.8437C49.6488 14.4375 49.456 14.8958 49.0706 15.2187C48.6644 15.5417 48.1435 15.7031 47.5081 15.7031C46.8623 15.7031 46.3363 15.5417 45.93 15.2187C45.5446 14.8854 45.3519 14.4271 45.3519 13.8437C45.3519 13.25 45.5446 12.7917 45.93 12.4687C46.2946 12.1667 46.8206 12.0156 47.5081 12.0156C48.1852 12.0156 48.706 12.1667 49.0706 12.4687C49.456 12.7812 49.6488 13.2396 49.6488 13.8437Z" fill="#202040"/>
<path d="M117.141 34V11.125H125.375V26.5781H133.375V34H117.141Z" fill="#202040"/>
<path d="M147.996 28.1719C148.569 28.1719 149.027 27.9687 149.371 27.5625C149.725 27.1458 149.902 26.6146 149.902 25.9687C149.902 25.3021 149.736 24.7708 149.402 24.375C149.059 23.9687 148.59 23.7656 147.996 23.7656C147.413 23.7656 146.955 23.9687 146.621 24.375C146.257 24.7917 146.074 25.3229 146.074 25.9687C146.074 26.6146 146.257 27.1458 146.621 27.5625C146.955 27.9687 147.413 28.1719 147.996 28.1719ZM157.434 25.9687C157.434 27.1562 157.179 28.3177 156.668 29.4531C156.126 30.5677 155.376 31.5417 154.418 32.375C153.595 33.0729 152.637 33.625 151.543 34.0312C150.429 34.4167 149.246 34.6094 147.996 34.6094C146.725 34.6094 145.548 34.4167 144.465 34.0312C143.413 33.6875 142.444 33.1354 141.559 32.375C140.59 31.5521 139.856 30.5781 139.356 29.4531C138.814 28.3594 138.543 27.1979 138.543 25.9687C138.543 24.7187 138.814 23.5469 139.356 22.4531C139.595 21.901 139.892 21.3958 140.246 20.9375C140.6 20.4792 141.038 20.0208 141.559 19.5625C142.444 18.8021 143.413 18.25 144.465 17.9062C145.548 17.5208 146.725 17.3281 147.996 17.3281C149.246 17.3281 150.423 17.5208 151.527 17.9062C152.642 18.2917 153.616 18.8437 154.449 19.5625C155.387 20.375 156.126 21.3385 156.668 22.4531C157.179 23.5885 157.434 24.7604 157.434 25.9687Z" fill="#202040"/>
<path d="M171.071 25.5469C171.071 26.1927 171.242 26.6875 171.586 27.0312C171.94 27.4062 172.42 27.5937 173.024 27.5937C173.638 27.5937 174.117 27.4062 174.461 27.0312C174.826 26.6667 175.008 26.1719 175.008 25.5469C175.008 24.9427 174.826 24.4427 174.461 24.0469C174.117 23.6614 173.638 23.4687 173.024 23.4687C172.451 23.4687 171.982 23.651 171.617 24.0156C171.253 24.4635 171.071 24.9739 171.071 25.5469ZM174.821 32.5312V31.125C174.06 31.9583 173.289 32.5521 172.508 32.9062C171.727 33.2917 170.831 33.4844 169.821 33.4844C167.914 33.4844 166.357 32.7708 165.149 31.3437C164.545 30.6667 164.086 29.8594 163.774 28.9219C163.461 27.9844 163.305 26.9687 163.305 25.875C163.305 23.3125 163.899 21.2396 165.086 19.6562C166.263 18.1042 167.841 17.3281 169.821 17.3281C170.81 17.3281 171.732 17.5417 172.586 17.9687C173.388 18.3958 174.133 19.0469 174.821 19.9219V17.8437H182.336V31.6562C182.336 33.0937 182.274 34.151 182.149 34.8281C182.024 35.5469 181.821 36.1979 181.539 36.7812C180.873 38.1562 179.701 39.2135 178.024 39.9531C176.305 40.6614 174.149 41.0156 171.555 41.0156C170.149 41.0156 168.795 40.8854 167.492 40.625C166.295 40.3854 165.144 40.0104 164.039 39.5L165.727 34.2812C166.675 34.8542 167.55 35.2708 168.352 35.5312C169.164 35.8125 170.019 35.9531 170.914 35.9531C172.164 35.9531 173.133 35.6667 173.821 35.0937C174.487 34.4896 174.821 33.6354 174.821 32.5312Z" fill="#202040"/>
<path fill-rule="evenodd" clip-rule="evenodd" d="M80.006 4.42269C85.7039 -1.27517 94.9419 -1.27517 100.64 4.42269C106.337 10.12 106.338 19.3569 100.641 25.0549L100.64 25.0565L86.6003 39.1376C86.2094 39.5297 85.6786 39.75 85.125 39.75H67.4167C66.2661 39.75 65.3333 38.8173 65.3333 37.6667V19.9583C65.3333 19.4058 65.5528 18.8759 65.9435 18.4852L80.006 4.42269ZM97.6935 7.36897C93.6228 3.29829 87.023 3.29829 82.9523 7.36897L69.5 20.8213V35.5833H84.2602L97.6935 22.1102C101.764 18.0395 101.764 11.4396 97.6935 7.36897Z" fill="#202040"/>
<path fill-rule="evenodd" clip-rule="evenodd" d="M91.8065 13.2768C92.6201 14.0904 92.6201 15.4095 91.8065 16.2231L62.6398 45.3898C61.8262 46.2034 60.5071 46.2034 59.6935 45.3898C58.8799 44.5762 58.8799 43.2571 59.6935 42.4435L88.8602 13.2768C89.6738 12.4633 90.9929 12.4633 91.8065 13.2768Z" fill="#202040"/>
<path fill-rule="evenodd" clip-rule="evenodd" d="M73.6667 29.3333C73.6667 28.1827 74.5994 27.25 75.75 27.25H92.4167C93.5673 27.25 94.5 28.1827 94.5 29.3333C94.5 30.4839 93.5673 31.4167 92.4167 31.4167H75.75C74.5994 31.4167 73.6667 30.4839 73.6667 29.3333Z" fill="#202040"/>
</svg>
